<svg id="Final_icon" data-name="Final icon" xmlns="http://www.w3.org/2000/svg" viewBox="0 0 577.36 247.35"><defs><style>.cls-1{fill:#42b883;}.cls-2{fill:#35495e;}.cls-3{fill:#074469;}</style></defs><title>vue-sphinx-xml-logo</title><polygon class="cls-1" points="577.36 0 535.01 0 471.49 107.79 409.89 0 366.58 0 471.49 180.94 577.36 0"/><polygon class="cls-2" points="576.55 247.35 472.27 70.88 368 247.35 430.56 247.35 472.27 178.37 512.38 247.35 576.55 247.35"/><path class="cls-3" d="M246.7,352.58c-13.05,2.41-18.93,13.74-13.59,26.52,7.82,18.73,24.79,23.72,42.49,25.94,32.66,4.08,60.86-9,86.23-27.16,20.24-14.49,58.86-51.26,61.5-55.5C352.17,329,290.17,299,223.84,286V260.93c13.89-3.19,27.57-6,41.06-9.49,24.16-6.26,48.09-13.49,72.36-19.29,30.06-7.19,60.15-12.87,91.21-3.54,29.12,8.74,58.59,16.46,88.22,23.27,11.7,2.69,24.24,1.71,38.34,2.51l8.36,19.68c-18.28,8.9-35.49,17-52.4,25.66a52.51,52.51,0,0,0-14.82,10.89c-6.26,6.9-4.46,21.17,2.86,29.46,2.22,2.52,5,4.54,9.33,8.38-22.34,8.49-19.7,28.95-25.88,45-6.11,15.85-15,28.32-31.84,38.91,0-18.15,0-32.67,0-32.67s12.71-54.73,13.56-82.24c-5.13,3.84-8.33,5.75-10.95,8.27-25.65,24.64-49.11,51.63-79.67,70.88-34.64,21.82-71.13,34.65-112.9,28.81-27.37-3.82-51.09-27.42-53.18-54.84-2.24-29.49,30.47-54.63,58.08-44.43,8.41,3.1,15.84,7.07,18.44,16a19.61,19.61,0,0,1-9.81,23.06c-7.4,4-18.88,1.11-22.07-3.51A69.2,69.2,0,0,1,246.7,352.58Zm34.9-80.07c5.52,2.75,8,4.5,10.8,5.3,35.51,10.34,71.15,19.85,108.62,19.34,27.76-.38,54.41-5.32,79.21-18.26,2.45-1.28,4.44-3.47,7-5.54-24.43-14.32-57.15-21.68-66.12-24.51.28,28.09-12,35.54-28.29,36-17,.44-24.26-11-25.1-36.49C341.57,253.26,309.92,262.67,281.6,272.52Z" transform="translate(-207.37 -185)"/><path class="cls-3" d="M223.79,250.35V224.16c16.51-3.44,32.36-5.93,47.74-10.12,27.36-7.46,54.43-16,81.63-24,26.13-7.72,52.16-5.82,78.15.8,31.07,7.91,62,16.29,93.32,23.3,9.43,2.11,19.73.33,31,.33l14.25,27.32c-17.18.59-32.45,3.66-46.68,1-24.74-4.55-48.95-12.2-73.16-19.31-31.41-9.22-62.55-13.27-95-3.81-35.74,10.43-72,19.22-108.08,28.29C239.92,249.76,232.34,249.54,223.79,250.35Z" transform="translate(-207.37 -185)"/></svg>